<?xml version="1.0" encoding="utf-8"?>
<!-- Generator: Adobe Illustrator 25.4.1, SVG Export Plug-In . SVG Version: 6.00 Build 0)  -->
<svg version="1.1" id="레이어_1" xmlns="http://www.w3.org/2000/svg" xmlns:xlink="http://www.w3.org/1999/xlink" x="0px"
	 y="0px" viewBox="0 0 80 80" style="enable-background:new 0 0 80 80;" xml:space="preserve">
<style type="text/css">
	.st0{fill:none;stroke:#9DAAB2;stroke-width:6;stroke-linecap:round;stroke-linejoin:round;stroke-miterlimit:10;}
</style>
<g>
	<g>
		<g>
			<polyline class="st0" points="59.57,30.44 65.57,36.25 71.57,30.44 			"/>
			<line class="st0" x1="71.57" y1="30.44" x2="72.77" y2="29.28"/>
			<line class="st0" x1="58.37" y1="29.28" x2="59.57" y2="30.44"/>
		</g>
		<g>
			<path class="st0" d="M65.72,32.15c-0.5-9.09-9.12-16.4-19.63-16.4H33.9c-10.51,0-19.64,9.77-20.13,18.86"/>
		</g>
	</g>
	<g>
		<g>
			<polyline class="st0" points="20.43,49.56 14.43,43.75 8.43,49.56 			"/>
			<line class="st0" x1="8.43" y1="49.56" x2="7.23" y2="50.72"/>
			<line class="st0" x1="21.63" y1="50.72" x2="20.43" y2="49.56"/>
		</g>
		<g>
			<path class="st0" d="M14.28,47.85c0.5,9.09,9.12,16.4,19.63,16.4H46.1c10.51,0,19.64-9.77,20.13-18.86"/>
		</g>
	</g>
</g>
</svg>
